<svg id="_x33_0_Cannon" enable-background="new 0 0 64 64" height="512" viewBox="0 0 64 64" width="512" xmlns="http://www.w3.org/2000/svg"><path d="m49 51.09c-.01 1.75-.29 3.95-.57 5.91h-.01-.42c-1.66 0-3 1.34-3 3 0 1 .52 1.47 1 2h-1v-1c0-1.1-.9-2-2-2s-2 .9-2 2v1h-1c-1.04 0-1.91-.97-2-2-.17-1.98-.73-5.2-2-9l.11-.29c.52.18 1.14.29 1.89.29 4 0 3.76-3 6-3 1.33 0 3.09 2.19 5 3.09z" fill="#e6e9ed"/><path d="m34.94 50.06-11.94 10.94c-.37.34-1.5 1-2 1h-2c0-1.66-1.34-3-3-3s-3 1.34-3 3c-.33 0-.64-.03-.92-.08.45-.5.92-.97.92-1.92 0-1.66-1.34-3-3-3 .96-.96 7.45-6.53 8.85-8.74 1.48.18 2.45-1.26 4.15-1.26 2 0 2 2 4 2s3-3 5-2c1.16.57 1.65 2.08 2.94 3.06z" fill="#e6e9ed"/><path d="m48.9 13.98.1.02c1 2 1 3.21 1 4 0 4.64-3.51 8.45-8.01 8.94l.01.06c2.6.65 7.72 1.3 11 1.68v.32c0 1.66 1.34 3 3 3v3c0 1.08-.85 2-1.92 2-.02 0-.05 0-.08 0-2.02-.09-4.12-.37-6-1l-.2.09c1.2 2.67 1.2 4.91 1.2 4.91s-1.79 1.2-3.99 1.27l-.01-.27c0-6-4-10-9-10-4.97 0-8.95 3.95-9 9.88-.32.08-.65.12-1 .12-3 0-4-1-4-1s.26-1.3.38-2.97l-.38-.03c-5.49-1.1-9.18-2.5-11.38-3.53l.38-.47s1.99-3.98-2.97-5.99c2.98.98 3.97-.91 3.97-2.01v-.24c1.83.67 4.59 1.64 7 2.24 4 1 9 0 9 0-6-1-9-5-9-11 0-.34.02-.69.05-1.02.11-1.11.41-2.17.86-3.14 1.58-3.45 5.06-5.84 9.09-5.84.35 0 .68.01 1 .03 2.06.09 3.55.51 4.81 1.24.79.45 1.49 1.03 2.19 1.73l.31.11c.78-2.38 3.04-4.11 5.69-4.11 3.31 0 6 2.69 6 6 0 .6 0 1.28-.1 1.98z" fill="#e6e9ed"/><g fill="#838f9b"><path d="m56 29v3c-1.66 0-3-1.34-3-3v-.32c1.77.2 3 .32 3 .32z"/><path d="m12 25.76v.24c0 1.1-.99 2.99-3.97 2.01.57-2.54 1.97-3.01 1.97-3.01s.79.32 2 .76z"/><path d="m8.03 28.01c4.96 2.01 2.97 5.99 2.97 5.99l-.38.47c-1.81-.86-2.62-1.47-2.62-1.47-.32-2.21-.23-3.82.03-4.99z"/><path d="m10 57c1.66 0 3 1.34 3 3 0 .95-.47 1.42-.92 1.92h-.01c-3.06-.57-2.99-4-2.07-4.92z"/><path d="m19 62h-6c0-1.66 1.34-3 3-3s3 1.34 3 3z"/><path d="m48.42 57h.01c-.16 1.12-.32 2.16-.43 3-.13 1-.99 2-2 2-.48-.53-1-1-1-2 0-1.66 1.34-3 3-3z"/><path d="m45 61v1h-4v-1c0-1.1.9-2 2-2s2 .9 2 2z"/></g><path d="m49 51.09c-1.91-.9-3.67-3.09-5-3.09-2.24 0-2 3-6 3-.75 0-1.37-.11-1.89-.29-.46-.17-.84-.39-1.17-.65-1.29-.98-1.78-2.49-2.94-3.06-2-1-3 2-5 2s-2-2-4-2c-1.7 0-2.67 1.44-4.15 1.26-.27-.03-.55-.11-.85-.26-3.69-1.84-4-5-4-5 4 0 8-2 8-2s1 1 4 1c.35 0 .68-.04 1-.12 2.49-.53 4.46-2.88 8-2.88 4 0 5 2 8 3 .68.23 1.36.3 2.01.27 2.2-.07 3.99-1.27 3.99-1.27 2 2 7 3 7 3 0 4-2.14 5.76-4 7-1.01.68-2.03.55-3 .09z" fill="#b4dd7f"/><path d="m46 18.3v2.7c0 1.1-.9 2-2 2-.55 0-1.05-.22-1.41-.59-.37-.36-.59-.86-.59-1.41v-1.38c1.72-.29 3.02-.76 4-1.32z" fill="#ff826e"/><path d="m45 42 .01.27c-.65.03-1.33-.04-2.01-.27-3-1-4-3-8-3-3.54 0-5.51 2.35-8 2.88.05-5.93 4.03-9.88 9-9.88 5 0 9 4 9 10z" fill="#fcd770"/><circle cx="43" cy="11" fill="#ffeaa7" r="2"/><path d="m32.07 2c1.66.04 2.97 1.42 2.93 3.07-.04 1.66-.07 3-.07 3l-.12.2c-1.26-.73-2.75-1.15-4.81-1.24v-.03s-.88-1.45-1-2c-.36-1.62 1.42-3.04 3.07-3z" fill="#ccd1d9"/><path d="m19 15.98v.02s-1.34 0-3 0-3-1.34-3-3 1.34-3 3-3c1.61 0 2.93.95 3.91 2.84-.45.97-.75 2.03-.86 3.14z" fill="#ccd1d9"/><path d="m53.957 37.999c.042.002.084.003.125.003.739 0 1.439-.283 1.984-.805.593-.568.934-1.369.934-2.197v-6.905l-.9-.09c-.076-.007-5.779-.582-10.223-1.283 3.053-1.714 5.123-4.979 5.123-8.722 0-.821-.006-2.19-1.052-4.332.052-.601.052-1.169.052-1.668 0-3.86-3.141-7-7-7-2.606 0-4.88 1.434-6.085 3.553-.313-.272-.642-.52-.981-.754l.065-2.701c.025-1.068-.366-2.082-1.104-2.855-.737-.774-1.731-1.214-2.799-1.24-1.272-.052-2.585.578-3.384 1.551-.651.793-.896 1.739-.688 2.665.049.222.168.513.31.815-3.544.214-6.641 2.101-8.497 4.892-1.282-1.539-2.733-1.926-3.837-1.926-2.206 0-4 1.794-4 4s1.794 4 4 4h2c0 4.873 1.871 8.451 5.347 10.441-1.329.014-2.781-.08-4.105-.412-3.886-.971-8.821-2.938-8.871-2.958l-.34-.136-.348.116c-.388.129-3.76 1.483-2.674 9.09l.059.41.332.249c.167.126 4.169 3.053 13.899 5.073-.065.592-.138 1.096-.194 1.439-1.108.489-4.127 1.688-7.105 1.688h-1.104l.108 1.099c.014.147.403 3.532 4.227 5.619-1.612 1.834-4.848 4.76-6.418 6.177-.73.661-1.286 1.164-1.521 1.398-.89.89-1.114 2.727-.511 4.182.666 1.605 2.203 2.525 4.219 2.525h8c.919 0 2.288-.905 2.676-1.263l11.37-10.422c.002.001.004.003.007.004 1.457 4.376 1.85 7.589 1.951 8.767.138 1.606 1.482 2.914 2.996 2.914h6c1.623 0 2.816-1.492 2.992-2.875.073-.582.173-1.265.28-2.002.256-1.753.557-3.841.675-5.691.187.029.376.049.566.049.663 0 1.348-.187 2.041-.649 2.199-1.466 4.446-3.542 4.446-7.832v-.819l-.804-.161c-1.241-.249-4.623-1.168-6.22-2.507-.045-.607-.186-1.731-.61-3.106 1.387.317 2.918.52 4.591.592zm1.043-7.277c-.361-.21-.652-.525-.823-.909.306.033.59.064.823.089zm-24.741-26.9c.415-.507 1.103-.822 1.789-.821 1.103.027 1.979.945 1.951 2.048l-.041 1.721c-.943-.356-2.023-.604-3.346-.709-.32-.563-.593-1.106-.635-1.28-.073-.32.022-.643.282-.959zm-14.259 8.178v2c.346 0 1.224.31 1.693 1h-1.693c-1.103 0-2-.897-2-2s.897-2 2-2c1.116 0 2.036.623 2.802 1.896-.034.084-.062.171-.094.257-.849-.766-1.939-1.153-2.708-1.153zm-5.911 14.109c.211.082.495.191.825.316-.075.209-.206.434-.438.601-.321.233-.742.276-1.167.238.265-.627.574-.978.78-1.155zm-1.266 3.45c.673.444 1.151.961 1.384 1.562.309.795.172 1.582.039 2.037-.609-.313-1.047-.57-1.314-.738-.14-1.139-.161-2.08-.109-2.861zm3.248 4.451c.241-.685.581-2.089.013-3.582-.209-.549-.515-1.05-.916-1.503.178-.087.342-.179.477-.277.586-.422.945-.981 1.147-1.535 1.75.623 3.965 1.357 5.966 1.857 4.032 1.007 8.885.117 9.389.02l.853.01v-2h-.916c-5.289-.911-8.084-4.368-8.084-10 0-4.962 4.037-9 9-9 3.749 0 5.443.906 7.148 2.57-.096.462-.148.94-.148 1.43h2c0-2.757 2.243-5 5-5s5 2.243 5 5c0 2.788 0 7-11 7v2c1.503 0 2.825-.081 4-.224v.224c0 1.654 1.346 3 3 3s3-1.346 3-3v-2.136c.876-.582 1.499-1.245 1.937-1.941.06.425.063.775.063 1.077 0 4.411-3.589 8-8 8-.997 0-3.893-.307-5.293-1.707l-1.414 1.414c2.267 2.267 6.526 2.293 6.707 2.293.257 0 .508-.019.76-.039l-.002.009c2.454.613 7.016 1.215 10.3 1.602.232 1.599 1.403 2.886 2.942 3.286v2.142c0 .285-.115.561-.317.753-.125.121-.34.271-.64.248-2.142-.093-4.026-.403-5.611-.916-.626-1.251-1.495-2.562-2.725-3.792l-1.414 1.414c2.895 2.895 3.528 6.397 3.667 7.733-.444.227-1.158.537-1.995.71-.359-5.929-4.433-10.15-9.965-10.15-5.484 0-9.539 4.147-9.958 9.995-.014 0-.028.005-.042.005-1.527 0-2.435-.282-2.9-.49.244-1.527.702-5.266-.152-7.827l-1.896.633c.338 1.015.419 2.313.389 3.543-4.221-.893-7.295-1.96-9.37-2.849zm30.929-13.566c.745-.163 1.405-.36 2-.581v1.137c0 .551-.448 1-1 1s-1-.449-1-1zm.968 20.763c-.217-.036-.435-.083-.651-.155-.995-.332-1.746-.785-2.54-1.264-1.459-.879-2.965-1.788-5.777-1.788-2.4 0-4.127.948-5.65 1.785-.429.235-.834.447-1.234.637.608-4.381 3.732-7.422 7.884-7.422 4.397 0 7.644 3.407 7.968 8.207zm-33.338 18.503c-.252-.608-.207-1.233-.095-1.628.842.236 1.465 1.002 1.465 1.918 0 .324-.088.534-.259.766-.517-.209-.901-.549-1.111-1.056zm3.648 1.29c.347-.595.985-1 1.722-1s1.375.405 1.722 1zm8.043-.734c-.272.252-1.096.699-1.321.734h-1.142c-.447-1.721-1.999-3-3.858-3-.829 0-1.6.254-2.239.687-.32-.914-.958-1.67-1.787-2.145.061-.055.116-.105.18-.163 2.966-2.68 5.913-5.398 7.213-7.122.778-.071 1.435-.408 1.971-.691.577-.303 1.075-.566 1.662-.566.562 0 .803.217 1.293.707.546.546 1.293 1.293 2.707 1.293 1.254 0 2.161-.773 2.89-1.395.96-.819 1.225-.931 1.663-.711.407.204.756.669 1.159 1.207.224.299.469.625.756.946zm19.679.734c0-.552.448-1 1-1s1 .448 1 1zm4.35-.111c-.239-.287-.35-.509-.35-.889 0-.836.518-1.553 1.248-1.851-.092.627-.176 1.218-.241 1.725-.052.418-.337.826-.657 1.015zm1.199-4.843c-1.417.162-2.609 1.052-3.18 2.3-.413-.214-.874-.346-1.369-.346-1.654 0-3 1.346-3 3-.468 0-.956-.527-1.004-1.085-.096-1.13-.453-4.03-1.648-7.96.214.018.418.045.652.045 2.729 0 3.867-1.24 4.698-2.146.593-.645.824-.854 1.302-.854.403 0 1.328.73 2.003 1.265.592.468 1.26.992 1.982 1.415-.051 1.333-.234 2.888-.436 4.366zm3.896-5.878c-1.182.785-2.43-.072-4.202-1.473-1.102-.872-2.144-1.695-3.243-1.695-1.396 0-2.16.832-2.774 1.501-.739.805-1.376 1.499-3.226 1.499-2.116 0-2.844-.972-3.688-2.098-.509-.68-1.035-1.382-1.865-1.797-1.708-.851-2.999.249-3.854.978-.554.472-1.076.917-1.593.917-.562 0-.803-.217-1.293-.707-.546-.546-1.293-1.293-2.707-1.293-1.082 0-1.921.442-2.594.797-.869.46-1.28.647-1.959.309-1.893-.946-2.756-2.261-3.144-3.167 2.868-.263 5.495-1.303 6.6-1.791.676.38 1.948.852 4.097.852 1.648 0 3.003-.743 4.312-1.462 1.376-.756 2.801-1.538 4.688-1.538 2.255 0 3.408.695 4.743 1.501.813.49 1.735 1.046 2.94 1.447 2.555.852 5.037-.134 6.197-.729 1.795 1.377 4.67 2.218 6.086 2.57-.253 2.951-1.936 4.322-3.521 5.379z"/><path d="m29 17h2v-2c0-1.93-1.57-3.5-3.5-3.5s-3.5 1.57-3.5 3.5v2h2v-2c0-.827.673-1.5 1.5-1.5s1.5.673 1.5 1.5z"/><path d="m43 14c1.654 0 3-1.346 3-3s-1.346-3-3-3-3 1.346-3 3 1.346 3 3 3zm0-4c.552 0 1 .449 1 1s-.448 1-1 1-1-.449-1-1 .448-1 1-1z"/></svg>